<svg width="1920" height="1080" viewBox="0 0 1920 1080" fill="none" xmlns="http://www.w3.org/2000/svg">
<rect width="99" height="77.9278" fill="#8CC120"/>
<rect x="99" width="99" height="77.9278" fill="#5CB133"/>
<rect x="198" width="99" height="77.9278" fill="#5CB133"/>
<rect x="297" width="99" height="77.9278" fill="#8CC120"/>
<rect x="396" width="99" height="77.9278" fill="#5CB133"/>
<rect x="495" width="99" height="77.9278" fill="#A4CB3A"/>
<rect x="594" width="99" height="77.9278" fill="#67B432"/>
<rect x="693" width="99" height="77.9278" fill="#95C533"/>
<rect x="792" width="99" height="77.9278" fill="#6BB630"/>
<rect x="891" width="99" height="77.9278" fill="#42AD36"/>
<rect x="990" width="99" height="77.9278" fill="#CEDD67"/>
<rect x="1089" width="99" height="77.9278" fill="#72B730"/>
<rect x="1188" width="99" height="77.9278" fill="#42AD36"/>
<rect x="1287" width="99" height="77.9278" fill="#76B92F"/>
<rect x="1386" width="99" height="77.9278" fill="#78BA2E"/>
<rect x="1485" width="99" height="77.9278" fill="#B6D24B"/>
<rect x="1584" width="99" height="77.9278" fill="#7DBB2D"/>
<rect x="1683" width="99" height="77.9278" fill="#7EBC2D"/>
<rect x="1782" width="99" height="77.9278" fill="#CEDD67"/>
<rect x="1881" width="39" height="77.9278" fill="#81BD2D"/>
<rect y="77.9279" width="99" height="98.9084" fill="#42AD36"/>
<rect x="99" y="77.9279" width="99" height="98.9084" fill="#5CB133"/>
<rect x="198" y="77.9279" width="99" height="98.9084" fill="#A4CB3A"/>
<rect x="297" y="77.9279" width="99" height="98.9084" fill="#62B332"/>
<rect x="396" y="77.9279" width="99" height="98.9084" fill="#8CC120"/>
<rect x="495" y="77.9279" width="99" height="98.9084" fill="#66B332"/>
<rect x="594" y="77.9279" width="99" height="98.9084" fill="#B6D24B"/>
<rect x="693" y="77.9279" width="99" height="98.9084" fill="#68B532"/>
<rect x="792" y="77.9279" width="99" height="98.9084" fill="#95C533"/>
<rect x="891" y="77.9279" width="99" height="98.9084" fill="#6FB630"/>
<rect x="990" y="77.9279" width="99" height="98.9084" fill="#70B730"/>
<rect x="1089" y="77.9279" width="99" height="98.9084" fill="#B6D24B"/>
<rect x="1188" y="77.9279" width="99" height="98.9084" fill="#74B830"/>
<rect x="1287" y="77.9279" width="99" height="98.9084" fill="#B6D24B"/>
<rect x="1386" y="77.9279" width="99" height="98.9084" fill="#78BA2E"/>
<rect x="1485" y="77.9279" width="99" height="98.9084" fill="#95C533"/>
<rect x="1584" y="77.9279" width="99" height="98.9084" fill="#B6D24B"/>
<rect x="1683" y="77.9279" width="99" height="98.9084" fill="#7EBC2D"/>
<rect x="1782" y="77.9279" width="99" height="98.9084" fill="#7FBD2D"/>
<rect x="1881" y="77.9279" width="39" height="98.9084" fill="#B6D24B"/>
<rect y="176.836" width="99" height="98.9084" fill="#5AB034"/>
<rect x="99" y="176.836" width="99" height="98.9084" fill="#8CC120"/>
<rect x="198" y="176.836" width="99" height="98.9084" fill="#5FB133"/>
<rect x="297" y="176.836" width="99" height="98.9084" fill="#8CC120"/>
<rect x="396" y="176.836" width="99" height="98.9084" fill="#62B332"/>
<rect x="495" y="176.836" width="99" height="98.9084" fill="#42AD36"/>
<rect x="594" y="176.836" width="99" height="98.9084" fill="#6DB630"/>
<rect x="693" y="176.836" width="99" height="98.9084" fill="#6CB530"/>
<rect x="792" y="176.836" width="99" height="98.9084" fill="#6CB530"/>
<rect x="891" y="176.836" width="99" height="98.9084" fill="#8CC120"/>
<rect x="990" y="176.836" width="99" height="98.9084" fill="#A4CB3A"/>
<rect x="1089" y="176.836" width="99" height="98.9084" fill="#73B830"/>
<rect x="1188" y="176.836" width="99" height="98.9084" fill="#95C533"/>
<rect x="1287" y="176.836" width="99" height="98.9084" fill="#8CC120"/>
<rect x="1386" y="176.836" width="99" height="98.9084" fill="#A4CB3A"/>
<rect x="1485" y="176.836" width="99" height="98.9084" fill="#7DBB2D"/>
<rect x="1584" y="176.836" width="99" height="98.9084" fill="#7DBB2D"/>
<rect x="1683" y="176.836" width="99" height="98.9084" fill="#95C533"/>
<rect x="1782" y="176.836" width="99" height="98.9084" fill="#7FBD2D"/>
<rect x="1881" y="176.836" width="39" height="98.9084" fill="#81BD2D"/>
<rect y="275.745" width="99" height="98.9084" fill="#A4CB3A"/>
<rect x="99" y="275.745" width="99" height="98.9084" fill="#5CB133"/>
<rect x="198" y="275.745" width="99" height="98.9084" fill="#95C533"/>
<rect x="297" y="275.745" width="99" height="98.9084" fill="#60B332"/>
<rect x="396" y="275.745" width="99" height="98.9084" fill="#8CC120"/>
<rect x="495" y="275.745" width="99" height="98.9084" fill="#66B332"/>
<rect x="594" y="275.745" width="99" height="98.9084" fill="#8CC120"/>
<rect x="693" y="275.745" width="99" height="98.9084" fill="#B6D24B"/>
<rect x="792" y="275.745" width="99" height="98.9084" fill="#95C533"/>
<rect x="891" y="275.745" width="99" height="98.9084" fill="#6FB630"/>
<rect x="990" y="275.745" width="99" height="98.9084" fill="#70B730"/>
<rect x="1089" y="275.745" width="99" height="98.9084" fill="#42AD36"/>
<rect x="1188" y="275.745" width="99" height="98.9084" fill="#74B830"/>
<rect x="1287" y="275.745" width="99" height="98.9084" fill="#76B92F"/>
<rect x="1386" y="275.745" width="99" height="98.9084" fill="#77BA2F"/>
<rect x="1485" y="275.745" width="99" height="98.9084" fill="#95C533"/>
<rect x="1584" y="275.745" width="99" height="98.9084" fill="#7BBB2D"/>
<rect x="1683" y="275.745" width="99" height="98.9084" fill="#7EBC2D"/>
<rect x="1782" y="275.745" width="99" height="98.9084" fill="#CEDD67"/>
<rect x="1881" y="275.745" width="39" height="98.9084" fill="#81BD2D"/>
<rect y="374.653" width="99" height="98.9084" fill="#5BB034"/>
<rect x="99" y="374.653" width="99" height="98.9084" fill="#A4CB3A"/>
<rect x="198" y="374.653" width="99" height="98.9084" fill="#5FB133"/>
<rect x="297" y="374.653" width="99" height="98.9084" fill="#8CC120"/>
<rect x="396" y="374.653" width="99" height="98.9084" fill="#64B332"/>
<rect x="495" y="374.653" width="99" height="98.9084" fill="#42AD36"/>
<rect x="594" y="374.653" width="99" height="98.9084" fill="#67B432"/>
<rect x="693" y="374.653" width="99" height="98.9084" fill="#8CC120"/>
<rect x="792" y="374.653" width="99" height="98.9084" fill="#6BB630"/>
<rect x="891" y="374.653" width="99" height="98.9084" fill="#6FB630"/>
<rect x="990" y="374.653" width="99" height="98.9084" fill="#8CC120"/>
<rect x="1089" y="374.653" width="99" height="98.9084" fill="#73B830"/>
<rect x="1188" y="374.653" width="99" height="98.9084" fill="#B6D24B"/>
<rect x="1287" y="374.653" width="99" height="98.9084" fill="#76B92F"/>
<rect x="1386" y="374.653" width="99" height="98.9084" fill="#95C533"/>
<rect x="1485" y="374.653" width="99" height="98.9084" fill="#7ABA2E"/>
<rect x="1584" y="374.653" width="99" height="98.9084" fill="#7BBB2D"/>
<rect x="1683" y="374.653" width="99" height="98.9084" fill="#B6D24B"/>
<rect x="1782" y="374.653" width="99" height="98.9084" fill="#7FBD2D"/>
<rect x="1881" y="374.653" width="39" height="98.9084" fill="#CEDD67"/>
<rect y="473.562" width="99" height="98.9084" fill="#8CC120"/>
<rect x="99" y="473.562" width="99" height="98.9084" fill="#5CB133"/>
<rect x="198" y="473.562" width="99" height="98.9084" fill="#8CC120"/>
<rect x="297" y="473.562" width="99" height="98.9084" fill="#A4CB3A"/>
<rect x="396" y="473.562" width="99" height="98.9084" fill="#64B332"/>
<rect x="495" y="473.562" width="99" height="98.9084" fill="#8CC120"/>
<rect x="594" y="473.562" width="99" height="98.9084" fill="#67B432"/>
<rect x="693" y="473.562" width="99" height="98.9084" fill="#6AB532"/>
<rect x="792" y="473.562" width="99" height="98.9084" fill="#B6D24B"/>
<rect x="891" y="473.562" width="99" height="98.9084" fill="#42AD36"/>
<rect x="990" y="473.562" width="99" height="98.9084" fill="#70B730"/>
<rect x="1089" y="473.562" width="99" height="98.9084" fill="#42AD36"/>
<rect x="1188" y="473.562" width="99" height="98.9084" fill="#74B92F"/>
<rect x="1287" y="473.562" width="99" height="98.9084" fill="#B6D24B"/>
<rect x="1386" y="473.562" width="99" height="98.9084" fill="#78BA2E"/>
<rect x="1485" y="473.562" width="99" height="98.9084" fill="#7ABA2E"/>
<rect x="1584" y="473.562" width="99" height="98.9084" fill="#CEDD67"/>
<rect x="1683" y="473.562" width="99" height="98.9084" fill="#7EBC2D"/>
<rect x="1782" y="473.562" width="99" height="98.9084" fill="#7FBD2D"/>
<rect x="1881" y="473.562" width="39" height="98.9084" fill="#B6D24B"/>
<rect y="572.47" width="99" height="98.9084" fill="#95C533"/>
<rect x="99" y="572.47" width="99" height="98.9084" fill="#8CC120"/>
<rect x="198" y="572.47" width="99" height="98.9084" fill="#95C533"/>
<rect x="297" y="572.47" width="99" height="98.9084" fill="#60B332"/>
<rect x="396" y="572.47" width="99" height="98.9084" fill="#42AD36"/>
<rect x="495" y="572.47" width="99" height="98.9084" fill="#66B332"/>
<rect x="594" y="572.47" width="99" height="98.9084" fill="#A4CB3A"/>
<rect x="693" y="572.47" width="99" height="98.9084" fill="#6AB532"/>
<rect x="792" y="572.47" width="99" height="98.9084" fill="#6CB530"/>
<rect x="891" y="572.47" width="99" height="98.9084" fill="#6FB630"/>
<rect x="990" y="572.47" width="99" height="98.9084" fill="#B6D24B"/>
<rect x="1089" y="572.47" width="99" height="98.9084" fill="#72B730"/>
<rect x="1188" y="572.47" width="99" height="98.9084" fill="#CEDD67"/>
<rect x="1287" y="572.47" width="99" height="98.9084" fill="#76B92F"/>
<rect x="1386" y="572.47" width="99" height="98.9084" fill="#95C533"/>
<rect x="1485" y="572.47" width="99" height="98.9084" fill="#A4CB3A"/>
<rect x="1584" y="572.47" width="99" height="98.9084" fill="#7BBB2D"/>
<rect x="1683" y="572.47" width="99" height="98.9084" fill="#42AD36"/>
<rect x="1782" y="572.47" width="99" height="98.9084" fill="#81BD2D"/>
<rect x="1881" y="572.47" width="39" height="98.9084" fill="#81BD2D"/>
<rect y="671.378" width="99" height="98.9084" fill="#95C533"/>
<rect x="99" y="671.378" width="99" height="98.9084" fill="#5DB133"/>
<rect x="198" y="671.378" width="99" height="98.9084" fill="#5FB133"/>
<rect x="297" y="671.378" width="99" height="98.9084" fill="#A4CB3A"/>
<rect x="396" y="671.378" width="99" height="98.9084" fill="#66B332"/>
<rect x="495" y="671.378" width="99" height="98.9084" fill="#66B332"/>
<rect x="594" y="671.378" width="99" height="98.9084" fill="#8CC120"/>
<rect x="693" y="671.378" width="99" height="98.9084" fill="#B6D24B"/>
<rect x="792" y="671.378" width="99" height="98.9084" fill="#6CB530"/>
<rect x="891" y="671.378" width="99" height="98.9084" fill="#8CC120"/>
<rect x="990" y="671.378" width="99" height="98.9084" fill="#70B730"/>
<rect x="1089" y="671.378" width="99" height="98.9084" fill="#72B730"/>
<rect x="1188" y="671.378" width="99" height="98.9084" fill="#B6D24B"/>
<rect x="1287" y="671.378" width="99" height="98.9084" fill="#76B92F"/>
<rect x="1386" y="671.378" width="99" height="98.9084" fill="#CEDD67"/>
<rect x="1485" y="671.378" width="99" height="98.9084" fill="#7ABA2E"/>
<rect x="1584" y="671.378" width="99" height="98.9084" fill="#7BBB2D"/>
<rect x="1683" y="671.378" width="99" height="98.9084" fill="#7EBC2D"/>
<rect x="1782" y="671.378" width="99" height="98.9084" fill="#CEDD67"/>
<rect x="1881" y="671.378" width="39" height="98.9084" fill="#81BD2D"/>
<rect y="770.287" width="99" height="98.9084" fill="#5AB134"/>
<rect x="99" y="770.287" width="99" height="98.9084" fill="#42AD36"/>
<rect x="198" y="770.287" width="99" height="98.9084" fill="#8CC120"/>
<rect x="297" y="770.287" width="99" height="98.9084" fill="#60B332"/>
<rect x="396" y="770.287" width="99" height="98.9084" fill="#B6D24B"/>
<rect x="495" y="770.287" width="99" height="98.9084" fill="#A4CB3A"/>
<rect x="594" y="770.287" width="99" height="98.9084" fill="#67B432"/>
<rect x="693" y="770.287" width="99" height="98.9084" fill="#95C533"/>
<rect x="792" y="770.287" width="99" height="98.9084" fill="#6CB530"/>
<rect x="891" y="770.287" width="99" height="98.9084" fill="#6DB630"/>
<rect x="990" y="770.287" width="99" height="98.9084" fill="#95C533"/>
<rect x="1089" y="770.287" width="99" height="98.9084" fill="#72B730"/>
<rect x="1188" y="770.287" width="99" height="98.9084" fill="#74B92F"/>
<rect x="1287" y="770.287" width="99" height="98.9084" fill="#95C533"/>
<rect x="1386" y="770.287" width="99" height="98.9084" fill="#78BA2E"/>
<rect x="1485" y="770.287" width="99" height="98.9084" fill="#A4CB3A"/>
<rect x="1584" y="770.287" width="99" height="98.9084" fill="#95C533"/>
<rect x="1683" y="770.287" width="99" height="98.9084" fill="#7EBC2D"/>
<rect x="1782" y="770.287" width="99" height="98.9084" fill="#B6D24B"/>
<rect x="1881" y="770.287" width="39" height="98.9084" fill="#81BD2D"/>
<rect y="869.195" width="99" height="98.9084" fill="#5AB134"/>
<rect x="99" y="869.195" width="99" height="98.9084" fill="#95C533"/>
<rect x="198" y="869.195" width="99" height="98.9084" fill="#5FB133"/>
<rect x="297" y="869.195" width="99" height="98.9084" fill="#8CC120"/>
<rect x="396" y="869.195" width="99" height="98.9084" fill="#62B332"/>
<rect x="495" y="869.195" width="99" height="98.9084" fill="#66B332"/>
<rect x="594" y="869.195" width="99" height="98.9084" fill="#67B432"/>
<rect x="693" y="869.195" width="99" height="98.9084" fill="#8CC120"/>
<rect x="792" y="869.195" width="99" height="98.9084" fill="#42AD36"/>
<rect x="891" y="869.195" width="99" height="98.9084" fill="#B6D24B"/>
<rect x="990" y="869.195" width="99" height="98.9084" fill="#70B730"/>
<rect x="1089" y="869.195" width="99" height="98.9084" fill="#42AD36"/>
<rect x="1188" y="869.195" width="99" height="98.9084" fill="#74B92F"/>
<rect x="1287" y="869.195" width="99" height="98.9084" fill="#B6D24B"/>
<rect x="1386" y="869.195" width="99" height="98.9084" fill="#78BA2E"/>
<rect x="1485" y="869.195" width="99" height="98.9084" fill="#B6D24B"/>
<rect x="1683" y="869.195" width="99" height="98.9084" fill="#95C533"/>
<rect x="1584" y="869.195" width="99" height="98.9084" fill="#7EBC2D"/>
<rect x="1782" y="869.195" width="99" height="98.9084" fill="#7FBD2D"/>
<rect x="1881" y="869.195" width="39" height="98.9084" fill="#CEDD67"/>
<rect y="968.104" width="99" height="98.9084" fill="#A4CB3A"/>
<rect x="99" y="968.104" width="99" height="98.9084" fill="#8CC120"/>
<rect x="198" y="968.104" width="99" height="98.9084" fill="#8CC120"/>
<rect x="297" y="968.104" width="99" height="98.9084" fill="#60B332"/>
<rect x="396" y="968.104" width="99" height="98.9084" fill="#8CC120"/>
<rect x="495" y="968.104" width="99" height="98.9084" fill="#66B332"/>
<rect x="594" y="968.104" width="99" height="98.9084" fill="#B6D24B"/>
<rect x="693" y="968.104" width="99" height="98.9084" fill="#6AB532"/>
<rect x="792" y="968.104" width="99" height="98.9084" fill="#8CC120"/>
<rect x="891" y="968.104" width="99" height="98.9084" fill="#6FB630"/>
<rect x="990" y="968.104" width="99" height="98.9084" fill="#8CC120"/>
<rect x="1089" y="968.104" width="99" height="98.9084" fill="#71B830"/>
<rect x="1188" y="968.104" width="99" height="98.9084" fill="#95C533"/>
<rect x="1287" y="968.104" width="99" height="98.9084" fill="#76B92F"/>
<rect x="1386" y="968.104" width="99" height="98.9084" fill="#A4CB3A"/>
<rect x="1485" y="968.104" width="99" height="98.9084" fill="#79BB2D"/>
<rect x="1683" y="968.104" width="99" height="98.9084" fill="#7EBC2D"/>
<rect x="1584" y="968.104" width="99" height="98.9084" fill="#42AD36"/>
<rect x="1782" y="968.104" width="99" height="98.9084" fill="#B6D24B"/>
<rect x="1881" y="968.104" width="39" height="98.9084" fill="#81BD2D"/>
<rect y="1067.01" width="99" height="12.988" fill="#5AB134"/>
<rect x="99" y="1067.01" width="99" height="12.988" fill="#8CC120"/>
<rect x="198" y="1067.01" width="99" height="12.988" fill="#5FB133"/>
<rect x="297" y="1067.01" width="99" height="12.988" fill="#42AD36"/>
<rect x="396" y="1067.01" width="99" height="12.988" fill="#B6D24B"/>
<rect x="495" y="1067.01" width="99" height="12.988" fill="#8CC120"/>
<rect x="594" y="1067.01" width="99" height="12.988" fill="#69B432"/>
<rect x="693" y="1067.01" width="99" height="12.988" fill="#B6D24B"/>
<rect x="792" y="1067.01" width="99" height="12.988" fill="#8CC120"/>
<rect x="891" y="1067.01" width="99" height="12.988" fill="#6FB630"/>
<rect x="990" y="1067.01" width="99" height="12.988" fill="#CEDD67"/>
<rect x="1089" y="1067.01" width="99" height="12.988" fill="#95C533"/>
<rect x="1188" y="1067.01" width="99" height="12.988" fill="#B6D24B"/>
<rect x="1287" y="1067.01" width="99" height="12.988" fill="#76B92F"/>
<rect x="1386" y="1067.01" width="99" height="12.988" fill="#95C533"/>
<rect x="1485" y="1067.01" width="99" height="12.988" fill="#A4CB3A"/>
<rect x="1683" y="1067.01" width="99" height="12.988" fill="#95C533"/>
<rect x="1584" y="1067.01" width="99" height="12.988" fill="#7CBC2D"/>
<rect x="1782" y="1067.01" width="99" height="12.988" fill="#81BD2D"/>
<rect x="1881" y="1067.01" width="39" height="12.988" fill="#81BD2D"/>
</svg>
